<svg width="25" height="23" viewBox="0 0 25 23" fill="none" xmlns="http://www.w3.org/2000/svg">
<path d="M12.5 0.0703125C6.02836 0.0703125 0.780518 5.31724 0.780518 11.7898C0.780518 16.9679 4.13851 21.3609 8.79507 22.9105C9.38075 23.019 9.59583 22.6563 9.59583 22.3467C9.59583 22.0673 9.58489 21.144 9.57992 20.1648C6.31945 20.8737 5.63147 18.782 5.63147 18.782C5.09837 17.4274 4.33024 17.0673 4.33024 17.0673C3.26698 16.3399 4.41039 16.3548 4.41039 16.3548C5.58726 16.4375 6.20695 17.5625 6.20695 17.5625C7.2522 19.3542 8.94857 18.8362 9.61733 18.5368C9.72248 17.7792 10.0263 17.2623 10.3614 16.9697C7.75837 16.6732 5.0219 15.6683 5.0219 11.1778C5.0219 9.89833 5.47972 8.85281 6.22947 8.03211C6.10777 7.73688 5.70666 6.54493 6.34298 4.93064C6.34298 4.93064 7.32711 4.61565 9.56669 6.13196C10.5015 5.87221 11.5041 5.74206 12.5 5.73765C13.496 5.74206 14.4994 5.87221 15.436 6.13196C17.6729 4.61565 18.6556 4.93064 18.6556 4.93064C19.2935 6.54493 18.8922 7.73688 18.7705 8.03211C19.5219 8.85281 19.9766 9.89824 19.9766 11.1778C19.9766 15.679 17.235 16.6702 14.6254 16.9603C15.0457 17.324 15.4202 18.0372 15.4202 19.1306C15.4202 20.6986 15.4066 21.9607 15.4066 22.3467C15.4066 22.6586 15.6176 23.024 16.2117 22.909C20.8657 21.3576 24.2195 16.9662 24.2195 11.7898C24.2195 5.31724 18.9724 0.0703125 12.5 0.0703125Z" fill="#24292F"/>
<path d="M5.1696 16.7642C5.14387 16.8223 5.05214 16.8398 4.96877 16.7999C4.88375 16.7617 4.83596 16.6823 4.86353 16.6238C4.88881 16.5639 4.98054 16.5472 5.06537 16.5874C5.15058 16.6256 5.19911 16.7057 5.1696 16.7642ZM5.74609 17.2785C5.69021 17.3304 5.58092 17.3063 5.50675 17.2244C5.43009 17.1427 5.41575 17.0335 5.47246 16.9808C5.53009 16.9291 5.63607 16.9532 5.71291 17.035C5.78957 17.1177 5.80446 17.2262 5.746 17.2786M6.1416 17.9366C6.06972 17.9865 5.95225 17.9397 5.87973 17.8355C5.80795 17.7314 5.80795 17.6064 5.8813 17.5563C5.95409 17.5062 6.06972 17.5512 6.14325 17.6546C6.21495 17.7606 6.21495 17.8856 6.14151 17.9367M6.81037 18.6989C6.74612 18.7696 6.60935 18.7507 6.50916 18.654C6.40677 18.5595 6.37818 18.4254 6.44262 18.3546C6.5076 18.2836 6.6452 18.3035 6.74612 18.3994C6.84787 18.4937 6.87893 18.6288 6.81046 18.6989M7.67473 18.9562C7.64651 19.048 7.5147 19.0897 7.38198 19.0507C7.24944 19.0105 7.16267 18.903 7.18942 18.8103C7.21699 18.7179 7.34935 18.6744 7.48309 18.7161C7.61544 18.7561 7.70239 18.8628 7.67482 18.9562M8.65858 19.0653C8.66189 19.162 8.54929 19.2422 8.40995 19.2439C8.26978 19.2469 8.15645 19.1687 8.15498 19.0737C8.15498 18.9761 8.265 18.8967 8.40508 18.8944C8.54442 18.8916 8.65858 18.9693 8.65858 19.0653ZM9.62496 19.0283C9.64169 19.1226 9.54481 19.2195 9.40648 19.2452C9.27045 19.27 9.14453 19.2118 9.12715 19.1184C9.11024 19.0217 9.20896 18.9249 9.34472 18.8998C9.48332 18.8757 9.60731 18.9324 9.62496 19.0283Z" fill="#24292F"/>
</svg>
