<svg width="24" height="23" viewBox="0 0 24 23" fill="none" xmlns="http://www.w3.org/2000/svg">
<path fill-rule="evenodd" clip-rule="evenodd" d="M23.04 11.7615C23.04 10.946 22.9668 10.1619 22.8309 9.40918H12V13.8576H18.1891C17.9225 15.2951 17.1123 16.513 15.8943 17.3285V20.214H19.6109C21.7855 18.2119 23.04 15.2637 23.04 11.7615Z" fill="#4285F4"/>
<path fill-rule="evenodd" clip-rule="evenodd" d="M12 22.9996C15.105 22.9996 17.7081 21.9698 19.6109 20.2134L15.8943 17.328C14.8645 18.018 13.5472 18.4257 12 18.4257C9.00474 18.4257 6.46951 16.4028 5.56519 13.6846H1.72314V16.6641C3.61542 20.4225 7.50451 22.9996 12 22.9996Z" fill="#34A853"/>
<path fill-rule="evenodd" clip-rule="evenodd" d="M5.56523 13.6855C5.33523 12.9955 5.20455 12.2584 5.20455 11.5005C5.20455 10.7425 5.33523 10.0055 5.56523 9.31548V6.33594H1.72318C0.944318 7.88844 0.5 9.6448 0.5 11.5005C0.5 13.3562 0.944318 15.1125 1.72318 16.665L5.56523 13.6855Z" fill="#FBBC05"/>
<path fill-rule="evenodd" clip-rule="evenodd" d="M12 4.57386C13.6884 4.57386 15.2043 5.15409 16.3961 6.29364L19.6945 2.99523C17.7029 1.13955 15.0997 0 12 0C7.50451 0 3.61542 2.57705 1.72314 6.33545L5.56519 9.315C6.46951 6.59682 9.00474 4.57386 12 4.57386Z" fill="#EA4335"/>
</svg>
