<svg width="30" height="23" viewBox="0 0 30 23" fill="none" xmlns="http://www.w3.org/2000/svg">
<path d="M9.7519 23C20.4279 23 26.2662 14.1521 26.2662 6.47956C26.2662 6.22829 26.2611 5.97816 26.2497 5.72907C27.3857 4.90677 28.3662 3.88864 29.145 2.7224C28.105 3.18493 26.9859 3.49623 25.8118 3.63659C27.0102 2.91778 27.9301 1.7806 28.3642 0.425098C27.2248 1.10124 25.9784 1.57788 24.6786 1.83448C23.6194 0.70587 22.1115 0 20.4418 0C17.2366 0 14.6373 2.60026 14.6373 5.80549C14.6373 6.26117 14.6883 6.70427 14.7879 7.12943C9.96396 6.8866 5.68642 4.57614 2.82367 1.06295C2.30806 1.94904 2.03685 2.95611 2.03776 3.9813C2.03776 5.99576 3.06241 7.77406 4.62066 8.81446C3.69893 8.7863 2.79744 8.53725 1.99199 8.08824C1.99112 8.11262 1.99112 8.13636 1.99112 8.16241C1.99112 10.9743 3.99178 13.3221 6.64759 13.8541C6.14879 13.99 5.63409 14.0587 5.11711 14.0584C4.74376 14.0584 4.3799 14.0217 4.02628 13.9538C4.76521 16.2608 6.90789 17.9396 9.4483 17.9865C7.46173 19.5441 4.95927 20.4719 2.23947 20.4719C1.77679 20.4723 1.3145 20.4454 0.85498 20.3915C3.42374 22.0385 6.47388 22.9996 9.75218 22.9996" fill="#1D9BF0"/>
</svg>
